<?xml version="1.0" encoding="UTF-8"?>
<svg xmlns="http://www.w3.org/2000/svg" xmlns:xlink="http://www.w3.org/1999/xlink" width="170.43pt" height="34.02pt" viewBox="0 0 170.43 34.02" version="1.1">
<defs>
<clipPath id="clip1">
  <path d="M 0 12 L 170.429688 12 L 170.429688 22 L 0 22 Z M 0 12 "/>
</clipPath>
<clipPath id="clip2">
  <path d="M 16 0 L 162 0 L 162 34.019531 L 16 34.019531 Z M 16 0 "/>
</clipPath>
</defs>
<g id="surface1">
<g clip-path="url(#clip1)" clip-rule="nonzero">
<path style=" stroke:none;fill-rule:evenodd;fill:rgb(92.89856%,10.998535%,14.099121%);fill-opacity:1;" d="M 0 12.417969 L 10.207031 12.417969 L 10.207031 21.601563 L 0 21.601563 Z M 59.53125 12.417969 L 69.734375 12.417969 L 69.734375 21.601563 L 59.53125 21.601563 Z M 122.125 12.417969 L 132.328125 12.417969 L 132.328125 21.601563 L 122.125 21.601563 Z M 160.222656 12.417969 L 170.429688 12.417969 L 170.429688 21.601563 L 160.222656 21.601563 L 160.222656 12.417969 "/>
</g>
<g clip-path="url(#clip2)" clip-rule="nonzero">
<path style=" stroke:none;fill-rule:evenodd;fill:rgb(0%,58.399963%,85.499573%);fill-opacity:1;" d="M 16.328125 0.00390625 L 42.863281 0.00390625 L 42.863281 8.507813 L 39.75 12.417969 L 30.277344 12.417969 L 30.277344 21.605469 L 32.445313 21.605469 L 29.335938 25.515625 L 42.863281 25.515625 L 42.863281 34.019531 L 16.328125 34.019531 L 16.328125 25.515625 L 29.386719 8.507813 L 16.328125 8.507813 Z M 48.644531 0.00390625 L 70.417969 0.00390625 L 70.417969 7.484375 L 56.46875 7.484375 L 56.46875 26.539063 L 70.417969 26.539063 L 70.417969 34.019531 L 48.644531 34.019531 Z M 74.871094 0.00390625 L 84.761719 0.00390625 L 90.542969 9.332031 L 94.316406 0.00390625 L 105.265625 0.00390625 L 98.191406 12.417969 L 89.808594 12.417969 L 89.808594 21.605469 L 99.265625 21.605469 L 107.277344 34.019531 L 96.578125 34.019531 L 90.292969 23.304688 L 83.882813 34.019531 L 73.363281 34.019531 L 84.632813 16.546875 Z M 111.238281 0.00390625 L 133.007813 0.00390625 L 133.007813 7.484375 L 119.0625 7.484375 L 119.0625 26.539063 L 133.007813 26.539063 L 133.007813 34.019531 L 111.238281 34.019531 Z M 140.152344 0.00390625 L 147.976563 0.00390625 L 147.976563 25.515625 L 161.925781 25.515625 L 161.925781 34.019531 L 140.152344 34.019531 L 140.152344 0.00390625 "/>
</g>
</g>
</svg>
