<svg xmlns="http://www.w3.org/2000/svg" viewBox="0 0 1200 464"><path fill="#231f20" d="M571.5 86.85c-2.15-6.82-.97-18.02 7.54-20.21q11.15-2.88 21.47-.14c8.71 2.32 9.46 13.99 7.34 21.02-2.97 9.9-19.09 8.83-26.85 7.48-4.97-.86-7.93-3.22-9.5-8.15Z"/><rect width="34.76" height="138" x="299.74" y="66.25" fill="#231f20" rx=".57"/><path fill="#231f20" d="M495.52 108.72c11.62-5.59 24.29-6.4 36.58-3.57q16.86 3.88 21.46 18.6 1.61 5.14 1.65 18.3.1 30.75.02 61.91a.54.48-90 0 1-.48.54l-33.69-.01a.53.53 89.8 0 1-.53-.53q-.05-30.74-.02-61.46c.01-10.46-6.93-11.61-15.38-10.83-6.61.62-10.03 4.16-10.06 10.77q-.16 30.65-.04 61.33a.53.48 0 0 1-.53.48h-33.75a.5.5 0 0 1-.5-.5v-137a.5.5 0 0 1 .5-.5h33.5a.75.75 0 0 1 .75.75v41.5a.37.29-15.6 0 0 .52.22ZM125 71.96c31.27-.01 54.28 9.26 57.32 43.82 1.48 16.83 2.17 36.99-1.74 54.13-6.21 27.22-29.87 34.24-54.64 34.32q-29.6.09-59.21 0a.74.73.4 0 1-.73-.73V72.75a.81.74-.4 0 1 .8-.74q28.85-.05 58.2-.05Zm20.73 32.56c.66-4.77-1.75-10.23-7.19-10.42q-10.6-.37-25.4.07a.69.65-86.1 0 0-.62.58l-13.23 85a.8.78-84.8 0 0 .75.92q13.61.25 26.19-.08c6.32-.16 9.17-3.6 10.07-9.82q4.82-33.12 9.43-66.25Zm96.83 74.62q19.22.31 39.12-.17a.57.46 3 0 1 .6.54l-4.43 24.31a.67.53 3.4 0 1-.63.44q-26.94.67-39.65.44c-39.79-.73-43.72-25.41-41.97-58.7 1.11-21.13 7.65-36.35 30.4-40.75 21.3-4.12 53.9-2.56 60 23.24q2.56 10.83.95 23.85c-1.09 8.82-5.47 13.46-14.65 13.54q-21.42.19-42.87.14a.55.53 1.7 0 0-.55.5c-.52 9.35 5.39 12.48 13.68 12.62Zm10.65-49q-8.39-3.88-17.5-1.01c-6.67 2.1-7.56 8.92-7.65 14.82a.54.44-89.4 0 0 .44.55h29a.69.5 0 0 0 .69-.5q.03-6.11-2.57-11.57-.72-1.51-2.41-2.29Zm130.29 73.61v32.5a.5.5 0 0 1-.5.5h-33.75a.64.43-90 0 1-.43-.64q-.16-42.61-.02-85.1c.04-12.01 1.35-24.87 8.85-33.98 11.91-14.47 40.01-15.06 56.89-12.14 22.34 3.85 30.94 16.37 32.27 38.43 1.39 23.07 2.15 55.4-26.34 62.35-12.1 2.95-24.48 2.47-36.44-2.17a.39.31 13.2 0 0-.53.25Zm8.08-72.59c-4 .55-6.8 4.24-7.25 7.9q-1.74 14.32-.24 30.02c1.1 11.49 9.09 12.55 18.96 10.98 6.69-1.07 8-5.57 8.53-11.96q1.07-12.91 0-25.83c-1.03-12.45-9.09-12.62-20-11.11Z"/><rect width="34.74" height="97.74" x="572.5" y="106.75" fill="#231f20" rx=".45"/><path fill="#231f20" d="M381.99 316.26c-8.76 2.12-11.59 11.37-11.64 19.43q-.2 30.77-.07 61.4a.64.59-90 0 1-.59.64l-18.44.01a.74.5 90 0 1-.5-.74V260.25a.44.34 0 0 1 .44-.34l18.31-.13a.72.51-90 0 1 .51.72l.02 46q0 .6.49.2 8.44-6.68 20.39-7.48c18.88-1.26 39.44 1.35 44.07 23.01q.74 3.46.75 11.52.02 31.63.02 63.27a.75.73 0 0 1-.75.73h-18.25a.54.48 90 0 1-.48-.54q-.04-29.5-.02-58.96c.01-5.08.21-13.01-2.49-17.17-5.31-8.13-24.21-6.65-31.77-4.82Z"/><rect width="19.5" height="137.98" x="665" y="259.77" fill="#231f20" rx=".72"/><rect width="24.16" height="24.16" x="-12.08" y="-12.08" fill="#231f20" rx="9.64" transform="rotate(.3 -51748.67 176968.25)"/><path fill="#231f20" d="M113.5 283.5a.56.49 0 0 0-.56-.49L67.5 283a.42.4 5.5 0 1-.42-.48l3.33-16.34a.86.85 5.8 0 1 .84-.68h108.5a.63.57-83.8 0 1 .54.75l-3.26 16.26a.83.6 4 0 1-.78.49H133.5a.81.74 90 0 0-.74.81l.01 112.94a1 .78-90 0 1-.78 1H114a.5.5 0 0 1-.5-.5V283.5Zm63.64 106.12c-11.38-9.52-11.38-24.78-11.71-38.26-.6-24.7 1.93-46.2 30.04-51.44 15.07-2.81 39.05-1.62 48.61 12.38 6.52 9.56 6.85 25.52 4.5 36.77-1.4 6.69-6.37 7.64-12.78 7.65q-25.04.07-50.15.02a.62.62 0 0 0-.62.62c.04 18.33 3.31 24.57 22.22 24.62q17.72.05 35.36-.46a.41.41 4.4 0 1 .42.49l-3.15 15.32a.73.48 2.3 0 1-.66.4q-16.39.45-32.71.42c-9.56-.01-21.73-2.13-29.37-8.53Zm54.09-48.36c.69-10.29.47-23.53-11.31-25.9-7.48-1.51-21.39-2.43-28.15 1.87-6.86 4.37-6.75 17.03-6.69 24.21a.52.42 90 0 0 .42.52l45.25-.16a.58.47-87.4 0 0 .48-.54Zm347.6 56.56c-23.75-7.5-22.41-35.2-22.02-55.07.27-13.47 2.1-28.48 13.32-36.71 12.74-9.35 43.83-9.24 57.73-3.13 20.13 8.86 18.55 35.29 18.39 53.84-.11 13.46-2.33 29.1-14.17 37.23-12.12 8.32-39.74 8.11-53.25 3.84Zm-.67-26.34c.71 5.34 4.35 10.96 9.85 12.02q11.82 2.27 25.3.25 9.23-1.4 11.41-10.02c3.03-12.04 2.19-29.48.92-42.71-.5-5.22-2.14-10.44-6.71-13.3-6.57-4.11-28.63-3.96-35.15.31-10.21 6.69-7.29 40.95-5.62 53.45Zm414.92 26.41c-35.23-1.83-37.54-25.17-36.72-54.39.56-20.32 3.87-38.17 26.89-42.98q15.35-3.22 29.8-.48c25.63 4.86 29.49 23.59 26.63 46.69q-1.23 9.85-10.93 9.89-26.17.09-52.34.17a.53.52 1.7 0 0-.53.49q-.14 2.48.32 8.77 1.13 15.43 16.31 15.83 19.73.52 40.02-.51a1.05 1 4 0 1 1.09 1.2l-3.05 14.74a.77.41 1.2 0 1-.7.35q-25.25.83-36.79.23Zm22.36-56.08q4.52.06 6.01-.05a.56.54 89.5 0 0 .51-.54c.58-13.21.52-24.45-15.66-26.53-10.22-1.32-26.63-2.05-29.22 11.33q-1.34 6.92-1.33 15.19a.85.85-1 0 0 .88.85q19.96-.5 38.81-.25Zm-513.76-26.64q-8.52-.61-16.92.89c-10.43 1.86-10.95 8.67-10.98 18.36q-.07 30.58-.02 61.59a1.74 1.73-.2 0 1-1.74 1.74h-17.26a.65.46 90 0 1-.46-.65q-.1-33.46-.1-66.84c0-17.63 8.72-26.92 25.63-29.83 21.93-3.77 58.88-3.9 59.16 27.88q.3 34.47.25 68.96a.49.48 0 0 1-.49.48h-18.5a.66.45 90 0 1-.45-.66q-.1-32.08-.03-64.08c.03-13.93-5.2-16.92-18.09-17.84Zm213.06 76.58c-9.8-8.59-11.05-22.06-11.44-35.01-.37-12.46-.3-23.33 2.69-34.55 6.92-26.02 38.08-25.12 59.33-21.77 28.97 4.57 27.66 34.11 27.41 56.83-.21 18.49-4.69 37.01-25.43 41.24-15.82 3.22-40.26 4.06-52.56-6.74Zm20.98-75.85c-10.25 1.66-11.49 11.19-12.1 19.58q-1.12 15.56.25 31.06c.83 9.41 3.23 16.11 13.11 17.47q9.3 1.29 19.07.3c14.85-1.49 16.63-10.82 16.7-24.06.06-10.79.69-22.07-1.25-32.73-1.39-7.67-6.02-11-13.76-11.99q-11.03-1.41-22.02.37Zm140.06 71.69c-11.99 8.26-28.34 8.35-42.28 5.24-19.15-4.27-25.07-19.64-25.99-37.26-.84-15.91-1.12-38.05 12.81-48.68 12.74-9.74 36.35-9.24 51.43-5.39 19.34 4.93 23.69 21.28 23.73 39.1q.05 26.2.01 52.4c-.01 6.12-1.84 14.83-4.59 20.25-8.72 17.21-29.43 17.3-45.99 17.51q-13.56.17-27.11-.44a.51.45 6.7 0 1-.49-.55l3.43-15.02a.8.6 5.2 0 1 .76-.47q16.56.37 32.98.12c17.75-.28 22.04-10.22 21.72-26.59q-.01-.5-.42-.22ZM828 362.07c.59 7.16 3.31 13.75 11.23 15.23 10 1.87 33.47 3.63 35.99-10.3 1.56-8.6 1.11-17.41.97-30.94-.18-16.79-5.77-20.39-21.64-21.19-9.85-.49-24.71-.27-26.23 12.96q-1.82 15.79-.32 34.24Zm-538.32 34.27c-29.09-4.98-27.24-34.52-26.66-56.34.47-18.06 6.38-32.37 25.23-36.77 12.9-3 28.01-2.14 44.74-1.25a.53.43 6.2 0 1 .52.52l-3.12 15.08a.7.5 4.3 0 1-.67.41c-9.63-.16-19.22-.86-28.82-.15-9.6.7-16.04 2.89-17.25 13.85q-1.97 17.84-.06 34.68c1.46 12.79 8.44 15.16 20.46 15.34q14.73.22 29.46-.22a.39.37 4.8 0 1 .39.44l-3.12 15.08a.84.81-85 0 1-.77.67c-13.54.33-26.5 1.03-40.33-1.34Zm787.33-40.17c-18.77-1.89-26.63-18.81-22.02-35.43 3.92-14.15 17.26-18.68 30.71-18.99q22.74-.51 45.51.01a.34.27 5.1 0 1 .34.32l-3.2 15.49a.76.41 3.3 0 1-.72.34q-20.88-.3-41.62-.15c-8.91.06-15.56 3.88-13.09 14.07 1.36 5.64 7.57 6.93 12.53 7.31q20.62 1.58 27.16 2.73 18.52 3.23 20.93 22.02c3.03 23.56-12.21 32.66-32.84 34.04q-9.67.64-46.3-.3a.59.51 6.1 0 1-.58-.62l3.15-15.02a.84.53 3.9 0 1 .8-.43q18.92.31 37.72.43c10.02.06 20.3-.08 19.18-13.73-.51-6.34-5.03-8.69-11-9.32q-13.32-1.42-26.66-2.77Z"/><rect width="19.54" height="95.98" x="916" y="301.76" fill="#231f20" rx=".67"/></svg>