<?xml version="1.0" encoding="UTF-8"?><svg id="a" xmlns="http://www.w3.org/2000/svg" viewBox="0 0 904 173.53"><defs><style>.b{fill:#e5232a;}</style></defs><path class="b" d="M188.57,45.61c-1.14-14.48-7.83-25.49-20.77-32.43-9.93-5.33-20.74-7.51-31.82-8.68-16.63-1.75-33.33-1.07-47.25-1.26-17.31,0-31.85,.04-46.39-.04-2.34-.01-3.07,.39-1.83,2.71,1.74,3.25,3.17,6.65,4.88,9.92,1.34,2.57,1.39,4.94,.49,7.78C30.7,71.14,15.65,118.73,.48,166.27c-1,3.14-.62,3.96,2.87,3.91,14.06-.19,28.13,.02,42.2-.11,16.56-.15,33.12-.44,49.51-3.3,22.75-3.96,43.08-12.68,59.18-29.78,11.95-12.7,19.98-27.73,25.81-44.01,5.49-15.31,9.84-30.85,8.53-47.38Zm-40.46,5.49c-.59,10.79-3.52,21.07-6.66,31.31-3.55,11.61-7.69,22.97-13.17,33.84-9.56,18.99-24.96,29.39-45.96,31.87-8.41,.99-16.83,1.65-25.31,1.48-6.55-.13-8.77-3.2-6.75-9.51,12.07-37.8,24.17-75.59,36.2-113.4,.67-2.1,1.6-2.94,3.88-3.17,4.41-.44,8.81-.38,11.29-.44,10.88-.14,19.78,.41,28.47,2.81,13.33,3.69,18.77,11.41,18.01,25.2Z"/><path class="b" d="M423.56,47.53c-6.24,20.01-12.26,39.27-18.25,58.53-6.29,20.19-12.59,40.37-18.78,60.59-.77,2.52-1.78,3.62-4.63,3.53-7.62-.23-15.25-.19-22.88-.02-2.99,.07-3.62-.53-2.65-3.56,10.55-32.92,20.95-65.88,31.4-98.83,4.77-15.06,9.52-30.13,14.38-45.16,.67-2.08,.58-3.84-.38-5.77-1.75-3.51-3.21-7.16-5.04-10.62-1.42-2.69-.53-3.07,2.08-3.06,16.09,.09,32.18,.12,48.26-.03,2.55-.02,3.41,.95,4.21,3.12,13.46,36.31,27.01,72.59,40.54,108.87,.53,1.41,1.09,2.8,1.88,4.82,3.29-10.44,6.41-20.29,9.49-30.14,8.7-27.77,17.42-55.54,26.03-83.34,.75-2.43,1.72-3.4,4.4-3.32,7.26,.21,14.54,.22,21.8,0,3.12-.1,3.78,.48,2.76,3.61-11.6,35.7-23.07,71.44-34.56,107.18-5.67,17.64-11.37,35.28-16.94,52.95-.76,2.41-1.78,3.36-4.45,3.31-9.65-.19-19.31-.19-28.95,0-2.75,.05-3.86-.87-4.8-3.38-14.34-38.39-28.8-76.74-43.23-115.1-.41-1.1-.88-2.17-1.7-4.16Z"/><path class="b" d="M872.64,3.74C862.49,.68,852.07-.05,841.56,0c-17.55-.06-34.64,2.38-50.87,9.44-20.7,9.01-35.82,24.06-46.48,43.66-11.46,21.08-19.16,43.45-21.76,67.43-2.81,25.98,9.89,43.96,35.23,49.9,16.82,3.94,33.79,3.83,50.76,1.3,25.39-3.77,46.65-15.06,62.94-35.18,11.56-14.28,18.89-30.71,24.52-48.01,4.59-14.07,8.31-28.31,8.09-43.28-.33-21.55-10.77-35.34-31.35-41.54Zm-10.37,43.4c-.2,13.12-3.91,25.54-7.78,37.92-4.55,14.54-9.63,28.88-17.85,41.85-7.32,11.56-16.44,21-30.35,24.4-7.62,1.86-15.31,2.3-23,.63-11.04-2.4-17.15-9.5-18.32-20.81-1.2-11.72,1.15-22.99,4.36-34.12,5.03-17.51,10.71-34.78,20.69-50.24,8.46-13.11,19.59-22.59,35.45-25.45,6.03-1.09,12.09-1.26,18.13-.21,11.47,2,17.94,9.33,18.66,21.03,.1,1.66,.01,3.33,.01,5Z"/><path class="b" d="M669.6,.82c14.68,.11,29.25,1.2,43.64,4.31,2.82,.61,3.29,1.58,2.36,4.24-2.54,7.29-4.87,14.66-7.1,22.05-.73,2.43-1.57,2.85-3.91,1.68-13.67-6.83-28.1-10.91-43.41-11.87-6.37-.4-12.6-.11-18.57,2.44-7.16,3.05-11.69,8.44-13.96,15.75-1.76,5.67-.09,10.54,3.99,14.69,5.19,5.27,11.73,8.48,18.17,11.82,8.13,4.21,16.47,8.01,24.21,12.95,3.42,2.18,6.66,4.6,9.63,7.36,10.18,9.47,13.09,20.89,9.09,34.11-6.46,21.39-21.18,35.02-41.26,43.51-12.08,5.11-24.8,7.69-37.81,8.37-20.9,1.09-41.64-.3-62.05-5.39-3.31-.83-4.16-1.86-2.96-5.22,2.67-7.49,4.92-15.14,7.34-22.72,1.32-4.13,1.35-4.17,4.97-2.02,12.08,7.17,24.89,12.43,38.85,14.52,12.01,1.8,23.82,1.33,34.73-4.72,8.3-4.6,12.63-12.12,13.96-21.29,.71-4.93-1.68-9-5.08-12.45-5.1-5.17-11.47-8.45-17.78-11.78-9.67-5.11-19.69-9.58-28.55-16.12-10.39-7.67-17.08-17.25-15.47-30.9,.95-8.07,3.95-15.44,8.66-22.02,11.26-15.75,27.27-24.03,45.64-28.31,10.72-2.5,21.66-3.18,32.66-3Z"/><path class="b" d="M326.16,73.03c-2.1,6.59-4.07,12.79-6.05,18.99-.64,2.01-2.36,1.25-3.64,1.25-16.32,.05-32.65,.1-48.97-.04-2.75-.02-3.86,.85-4.67,3.45-4.35,14.07-8.91,28.08-13.4,42.1-2.51,7.84-.3,10.82,8.07,10.82,23.36,.02,46.71,.06,70.07-.01,2.81,0,3.84,.34,2.66,3.43-1.74,4.54-3.17,9.22-4.44,13.91-.69,2.54-1.96,3.22-4.52,3.21-25.02-.1-50.05-.06-75.07-.06-14.66,0-29.31-.1-43.97,.08-3.39,.04-3.92-.67-2.89-3.88,15.17-47.53,30.2-95.09,45.38-142.62,.9-2.82,.92-5.18-.4-7.79-2.03-3.99-3.82-8.11-5.96-12.69,1.61,0,2.74,0,3.87,0,42.18,0,84.36,.04,126.55-.08,3.48,0,4,.8,2.84,3.9-1.66,4.44-3.15,8.98-4.35,13.57-.69,2.67-2.1,3.14-4.57,3.13-24.19-.08-48.38,.02-72.57-.13-3.08-.02-4.23,.99-5.1,3.82-4.35,14.07-8.84,28.1-13.5,42.07-1.07,3.21-.27,3.64,2.8,3.62,15.85-.14,31.7-.07,47.54-.07h4.31Z"/></svg>